<?xml version="1.0" encoding="utf-8"?>
<!-- Generator: Adobe Illustrator 16.0.0, SVG Export Plug-In . SVG Version: 6.00 Build 0)  -->
<!DOCTYPE svg PUBLIC "-//W3C//DTD SVG 1.1//EN" "http://www.w3.org/Graphics/SVG/1.1/DTD/svg11.dtd">
<svg version="1.1" id="Layer_1" xmlns="http://www.w3.org/2000/svg" xmlns:xlink="http://www.w3.org/1999/xlink" x="0px" y="0px"
	 width="100px" height="100px" viewBox="0 0 100 100" enable-background="new 0 0 100 100" xml:space="preserve">
<g>
	<path fill="#FFFFFF" d="M65.206,36.688c-0.781-0.781-2.047-0.781-2.828,0l-9.899,9.899l-9.899-9.899
		c-0.781-0.781-2.047-0.781-2.828,0c-0.781,0.781-0.781,2.047,0,2.828l9.9,9.899l-9.9,9.899c-0.781,0.781-0.781,2.047,0,2.828
		c0.391,0.391,0.902,0.586,1.414,0.586c0.512,0,1.023-0.195,1.414-0.586l9.899-9.899l9.899,9.899
		c0.392,0.391,0.901,0.586,1.414,0.586s1.022-0.195,1.414-0.586c0.78-0.781,0.78-2.047,0-2.828l-9.899-9.899l9.899-9.899
		C65.986,38.735,65.986,37.468,65.206,36.688z"/>
	<path fill="#FFFFFF" d="M76.18,25.8C69.861,19.481,61.459,16,52.521,16c-8.937,0-17.336,3.48-23.656,9.8
		c-13.045,13.045-13.045,34.271,0,47.315c6.318,6.318,14.721,9.8,23.656,9.8c8.938,0,17.34-3.479,23.66-9.8
		c6.318-6.318,9.799-14.721,9.799-23.658C85.979,40.521,82.499,32.119,76.18,25.8z M73.354,70.287
		c-5.563,5.563-12.961,8.628-20.83,8.628c-7.869,0-15.267-3.063-20.83-8.628c-11.485-11.485-11.485-30.174,0-41.659
		C37.258,23.064,44.654,20,52.521,20c7.869,0,15.267,3.064,20.83,8.627c5.563,5.563,8.627,12.961,8.629,20.83
		C81.98,57.326,78.917,64.725,73.354,70.287z"/>
</g>
</svg>
