<?xml version="1.0" encoding="utf-8"?>
<!-- Generator: Adobe Illustrator 16.0.0, SVG Export Plug-In . SVG Version: 6.00 Build 0)  -->
<!DOCTYPE svg PUBLIC "-//W3C//DTD SVG 1.1//EN" "http://www.w3.org/Graphics/SVG/1.1/DTD/svg11.dtd">
<svg version="1.1" id="Layer_1" xmlns="http://www.w3.org/2000/svg" xmlns:xlink="http://www.w3.org/1999/xlink" x="0px" y="0px"
	 width="124.333px" height="121.666px" viewBox="0 0 124.333 121.666" enable-background="new 0 0 124.333 121.666"
	 xml:space="preserve">
<path display="none" fill="#BCBEC0" d="M-29.94,72.629l1.055-0.084c0.311-0.025,0.544-0.298,0.52-0.61l-0.129-1.58
	c-0.024-0.314-0.299-0.544-0.608-0.519l-2.354-0.002l-2.549-5.724c-0.27-0.611-0.946-1.116-2.032-1.116h-7.498h-7.498
	c-1.086,0-1.762,0.505-2.036,1.116l-2.546,5.724l-2.354,0.002c-0.309-0.025-0.583,0.205-0.609,0.519l-0.127,1.58
	c-0.025,0.312,0.209,0.585,0.519,0.61l1.055,0.084c-1.131,1.875-1.833,3.356-1.833,5.853l0.239,3.024
	c0,0.58,0.423,1.093,0.899,1.355v0.005v1.593c0.102,2.185,0.788,2.185,2.319,2.185c1.529,0,2.32,0,2.423-2.185v-1.418l9.551,0.005
	l9.468-0.002v1.416c0.102,2.185,0.787,2.185,2.319,2.185c1.528,0,2.32,0,2.422-2.185v-1.59v-0.007
	c0.477-0.262,0.979-0.775,0.979-1.355l0.242-3.024C-28.106,75.985-28.809,74.504-29.94,72.629z M-48.998,79.495
	c0,0.314-0.256,0.567-0.565,0.567h-5.578c-0.313,0-0.567-0.252-0.567-0.567v-2.04c0-0.317,0.254-0.567,0.567-0.567l5.578,0.454
	c0.31,0,0.565,0.254,0.565,0.565V79.495z M-53.896,71.515l2.742-6.307h7.618h7.615l2.741,6.307h-10.355H-53.896z M-31.366,79.495
	c0,0.314-0.254,0.567-0.566,0.567h-5.578c-0.31,0-0.567-0.252-0.567-0.567v-1.588c0-0.312,0.257-0.565,0.567-0.565l5.578-0.454
	c0.313,0,0.566,0.25,0.566,0.567V79.495z"/>
<path display="none" fill="#BCBEC0" d="M16.764,72.629l1.055-0.084c0.311-0.025,0.544-0.298,0.52-0.61l-0.129-1.58
	c-0.024-0.314-0.299-0.544-0.608-0.519l-2.348-0.002v-9.119c0-1.913-1.556-3.469-3.47-3.469H7.781
	c-0.412-1.231-1.749-2.14-3.353-2.14H3.915v-0.44h-1.12v1.362H1.806h-0.56v1.12h0.56h0.989v1.771H1.806h-0.56v1.12h0.56h0.989V61.4
	h1.12v-0.44h0.514c1.609,0,2.95-0.915,3.358-2.154h3.997c1.053,0,1.907,0.856,1.907,1.908v5.626l-0.994-2.231
	c-0.27-0.611-0.946-1.116-2.032-1.116H3.168H-4.33c-1.086,0-1.762,0.505-2.036,1.116l-2.546,5.724l-2.354,0.002
	c-0.309-0.025-0.583,0.205-0.609,0.519l-0.127,1.58c-0.025,0.312,0.209,0.585,0.519,0.61l1.055,0.084
	c-1.131,1.875-1.833,3.356-1.833,5.853l0.239,3.024c0,0.58,0.423,1.093,0.899,1.355v0.005v1.593
	c0.102,2.185,0.788,2.185,2.319,2.185c1.529,0,2.32,0,2.423-2.185v-1.418l9.551,0.005l9.468-0.002v1.416
	c0.102,2.185,0.787,2.185,2.319,2.185c1.528,0,2.32,0,2.422-2.185v-1.59v-0.007c0.477-0.262,0.979-0.775,0.979-1.355l0.242-3.024
	C18.598,75.985,17.896,74.504,16.764,72.629z M-2.293,79.495c0,0.314-0.256,0.567-0.565,0.567h-5.578
	c-0.313,0-0.567-0.252-0.567-0.567v-2.04c0-0.317,0.254-0.567,0.567-0.567l5.578,0.454c0.31,0,0.565,0.254,0.565,0.565V79.495z
	 M-7.191,71.515l2.742-6.307h7.618h7.615l2.741,6.307H3.168H-7.191z M15.338,79.495c0,0.314-0.254,0.567-0.566,0.567H9.194
	c-0.31,0-0.567-0.252-0.567-0.567v-1.588c0-0.312,0.257-0.565,0.567-0.565l5.578-0.454c0.313,0,0.566,0.25,0.566,0.567V79.495z"/>
<path display="none" fill="#BCBEC0" d="M153.389,78.937h-0.096V59.99h0.096c0.396,0,0.481-0.321,0.481-0.719
	c0-0.396-0.086-0.718-0.481-0.718h-3.94v-2.173c0.675,0.189,1.286,0.41,1.802,0.661c0.088,0.042,0.181,0.062,0.275,0.062
	c0.233,0,0.586-1.042,0.273-1.194c-2.026-0.981-5.131-1.546-8.522-1.546c-3.393,0-6.498,0.564-8.525,1.546
	c-0.311,0.152,0.043,1.194,0.275,1.194c0.094,0,0.188-0.021,0.275-0.062c0.516-0.25,1.127-0.471,1.802-0.661v2.173h-3.94
	c-0.397,0-0.467,0.322-0.467,0.718c0,0.398,0.069,0.719,0.467,0.719h0.096v18.947h-0.096c-0.397,0-0.467,0.321-0.467,0.717
	c0,0.398,0.069,0.719,0.467,0.719h3.087c-0.138,0.545-0.384,0.789-0.696,1.176c-0.179,0.224-0.179,0.538-0.179,0.538
	c0,0.496,0.4,0.897,0.896,0.897h0.253l-2.018,2.742v0.621h2.688l0.363-0.49l2.112-2.873h7.227l2.116,2.873l0.362,0.49h2.689v-0.621
	l-2.021-2.742h0.236c0.496,0,0.896-0.401,0.896-0.897c0,0,0-0.314-0.179-0.538c-0.313-0.387-0.557-0.631-0.696-1.176h3.087
	c0.396,0,0.481-0.321,0.481-0.719C153.87,79.258,153.784,78.937,153.389,78.937z M139.212,68.812h-4.721V61.09h4.721V68.812z
	 M143.276,77.259c-0.86,0-1.557-0.696-1.557-1.555s0.696-1.555,1.557-1.555c0.857,0,1.556,0.696,1.556,1.555
	S144.134,77.259,143.276,77.259z M146.106,69.957h-5.662V59.99h5.662V69.957z M152.06,68.812h-4.721V61.09h4.721V68.812z"/>
<g display="none">
	<path display="inline" fill="#BCBEC0" d="M141.498,123.934h0.003c0,0.193,0.795,0.35,1.776,0.35c0,0,0.004,0,0.008,0
		c0.002,0,0.002,0,0.004,0c0.984,0,1.779-0.156,1.779-0.35h0.001c0,0,0.003-0.535,0.198-0.861c1.902-3.179,8.132-8.952,8.132-14.23
		c0-5.85-3.069-9.914-10.112-9.92c0,0,0,0-0.002,0c-0.004,0-0.004,0-0.008,0c-7.037,0.006-10.11,4.07-10.11,9.92
		c0,5.278,6.229,11.052,8.132,14.23C141.494,123.398,141.498,123.934,141.498,123.934z"/>
	<path display="inline" fill="#BCBEC0" d="M141.444,126.79c-0.473,0.473-0.45,1.124-0.45,1.844c0,0.729-0.012,1.39,0.472,1.862
		c0.47,0.459,1.11,0.426,1.819,0.426c0.699,0,1.331,0.04,1.797-0.407c0.5-0.475,0.492-1.141,0.492-1.881
		c0-0.72,0.022-1.371-0.449-1.844C144.654,126.32,141.912,126.32,141.444,126.79z"/>
</g>
<path display="none" fill="#BCBEC0" d="M60.263,70.264c-0.006-0.084-0.021-0.166-0.029-0.242c0,0-0.798-6.744-0.813-6.866
	c-0.104-0.842-0.195-1.229-0.649-1.745c-0.017-0.022-0.04-0.043-0.068-0.075c-1.876-1.798-5.121-2.98-8.828-2.98c0,0,0,0-0.002,0
	c-3.709,0-6.953,1.183-8.828,2.98c-0.029,0.032-0.053,0.053-0.068,0.075c-0.452,0.516-0.543,0.903-0.649,1.745
	c-0.016,0.122-0.812,6.866-0.812,6.866c-0.008,0.076-0.022,0.157-0.031,0.242c-0.181,1.629-0.175,2.395-0.054,4.352
	c0.008,0.038,0.877,6.282,0.885,6.336c0,0.001-0.002,0.002-0.002,0.003c0,0.19,0.706,0.445,1.919,0.676
	c0.054,0.594,0.547,1.06,1.153,1.06h0.801l-2.232,3.021v0.636h2.756l0.37-0.5l2.332-3.157h4.928l2.33,3.157l0.37,0.5h2.756v-0.636
	l-2.231-3.021h0.801c0.608,0,1.099-0.466,1.152-1.06c1.205-0.23,1.908-0.483,1.911-0.674h0.004c0,0,0.878-6.304,0.885-6.342
	C60.438,72.659,60.446,71.893,60.263,70.264z M47.705,64.943c0-0.44,0.355-0.798,0.798-0.798h2.742c0.441,0,0.799,0.357,0.799,0.798
	v5.402c0,0.441-0.357,0.797-0.799,0.797h-2.742c-0.442,0-0.798-0.356-0.798-0.797V64.943z M40.895,71.581l0.792-6.644
	c0-0.499,0.405-0.905,0.905-0.905h1.143h1.758c0.44,0,0.799,0.357,0.799,0.798v1.456v3.947v1.456c0,0.441-0.358,0.798-0.799,0.798
	h-1.758h-1.934C41.302,72.487,40.895,72.082,40.895,71.581z M43.345,79.063c-0.812,0-1.469-0.659-1.469-1.472
	c0-0.811,0.657-1.468,1.469-1.468s1.471,0.657,1.471,1.468C44.815,78.403,44.156,79.063,43.345,79.063z M56.402,79.063
	c-0.812,0-1.471-0.659-1.471-1.472c0-0.811,0.659-1.468,1.471-1.468s1.47,0.657,1.47,1.468
	C57.872,78.403,57.214,79.063,56.402,79.063z M57.946,72.487h-1.934h-1.758c-0.441,0-0.798-0.357-0.798-0.798v-1.456v-3.947v-1.456
	c0-0.441,0.356-0.798,0.798-0.798h1.758h1.143c0.501,0,0.904,0.406,0.904,0.905l0.791,6.644
	C58.851,72.082,58.446,72.487,57.946,72.487z"/>
<g>
	<path fill="#FFFFFF" d="M118.295,6.663c0,0-23.78-0.637-41.526,12.788c-7.578,5.723-17.152,16.733-26.609,28.971l0.006-0.007
		c-3.08,3.932-5.948,7.045-12.771,7.038h-9.51c-1.11,0.047-2.03,0.282-2.972,1.321c-0.064,0.081-0.114,0.142-0.182,0.229
		l-9.225,11.231c-0.087,0.101-0.167,0.188-0.228,0.282c-0.315,0.416-0.396,0.737,0.503,0.885l12.802,1.986
		c3.777,0.597,3.999,1.127,2.502,3.261c-1.134,1.671-3.274,4.797-3.338,4.878c-0.651,0.939,2.58,5.341,7.454,10.231
		c4.897,4.884,9.299,8.112,10.242,7.461c0.08-0.061,3.2-2.208,4.871-3.349c2.133-1.489,2.664-1.268,3.261,2.51l1.985,12.802
		c0.148,0.898,0.477,0.817,0.893,0.51c0.08-0.061,0.174-0.147,0.275-0.235l11.238-9.219c0.084-0.066,0.15-0.12,0.225-0.181
		c1.036-0.946,1.274-1.865,1.322-2.979V87.57c-0.011-6.823,3.105-9.688,7.03-12.774l-0.007,0.007
		c12.238-9.446,23.259-19.034,28.98-26.603C118.942,30.448,118.295,6.663,118.295,6.663z M92.699,44.813
		c-3.462,3.455-9.074,3.448-12.536-0.014c-3.461-3.455-3.473-9.071-0.006-12.533c3.468-3.469,9.073-3.462,12.542,0.007
		C96.158,35.741,96.165,41.344,92.699,44.813z"/>
	<path fill="#FFFFFF" d="M36.868,104.444c-7.192,5.717-16.619,4.79-21.098,4.744c-0.043-4.476-0.973-13.902,4.75-21.095
		c0.557-0.544,0.497-1.463-0.097-2.06c-0.594-0.604-1.52-0.644-2.063-0.094c-11.07,8.406-9.953,30.614-9.953,30.614
		s22.208,1.12,30.618-9.949c0.547-0.544,0.503-1.471-0.101-2.067C38.334,103.948,37.411,103.888,36.868,104.444z"/>
</g>
<g display="none">
	<path display="inline" fill="#BCBEC0" d="M11.935,114.21L8.3,111.78l-2.294-4.643c-0.509-1.031-0.959-1.629-1.927-1.844
		c-0.75-0.166-1.496,0.02-2.081,0.436c-0.017,0.012-0.035,0.021-0.051,0.033l-5.437,4.307c-0.221,0.178-0.375,0.428-0.434,0.705
		l-1.043,5.018c-0.135,0.656,0.287,1.299,0.945,1.436c0.083,0.018,0.166,0.025,0.247,0.025c0.564,0,1.069-0.395,1.188-0.967
		l0.952-4.586l1.941-1.537c0,0-1.255,5.66-1.255,5.664l-1.49,6.719l-3.455,5.746c-0.493,0.822-0.227,1.887,0.594,2.381
		c0.28,0.168,0.589,0.25,0.893,0.25c0.587,0,1.164-0.301,1.488-0.842l3.603-5.988c0.096-0.16,0.166-0.336,0.206-0.518l1.015-4.58
		l3.848,4.443l1.2,6.084c0.163,0.826,0.89,1.4,1.701,1.4c0.111,0,0.225-0.012,0.339-0.033c0.939-0.186,1.551-1.098,1.365-2.039
		l-1.288-6.537c-0.058-0.295-0.192-0.57-0.392-0.799l-4.421-5.107l1.128-5.039l0.879,1.779c0.096,0.193,0.237,0.355,0.415,0.475
		l3.906,2.607c0.558,0.373,1.313,0.223,1.684-0.336C12.645,115.335,12.493,114.579,11.935,114.21z"/>
	<circle display="inline" fill="#BCBEC0" cx="4.867" cy="101.64" r="2.604"/>
</g>
<path display="none" fill="#BCBEC0" d="M-76.639,65.824h-1.372v-8.347c0,0,0-0.015,0-0.03c0-0.009,0-0.008,0-0.033
	c0-0.138-0.021-0.505-0.451-0.797c-0.429-0.293-1.286-0.559-2.117-0.694c-0.832-0.134-2.714-0.681-9.657-0.681
	c-0.002,0-0.005,0-0.006,0c-0.002,0-0.004,0-0.006,0c-6.943,0-8.827,0.547-9.657,0.681c-0.834,0.136-1.689,0.401-2.12,0.694
	c-0.429,0.292-0.452,0.659-0.452,0.797c0,0.004,0,0.004,0,0.007c0,0.052,0,0.063,0,0.052v8.352h-1.369
	c-0.253,0-0.459,0.205-0.459,0.461v5.042c0,0.255,0.206,0.46,0.459,0.46h1.369v11.755c0,0.254,0.206,0.46,0.461,0.46h0.484V85.1
	c0,1.629,1.211,1.543,2.735,1.543c1.526,0,2.78,0.086,2.78-1.543v-1.022h5.769h0.012h5.768V85.1c0,1.629,1.254,1.543,2.781,1.543
	c1.524,0,2.738,0.086,2.738-1.543v-1.098h0.481c0.254,0,0.457-0.206,0.457-0.46V71.787h1.372c0.253,0,0.46-0.205,0.46-0.46v-5.042
	C-76.179,66.029-76.386,65.824-76.639,65.824z M-95.926,58.145h5.678h0.012h5.676v3.676h-5.676h-0.013h-5.677V58.145z
	 M-94.689,79.847c0,0.301-0.25,0.549-0.556,0.549h-4.758c-0.303,0-0.552-0.248-0.552-0.549v-1.657c0-0.306,0.249-0.556,0.552-0.556
	h4.758c0.306,0,0.556,0.25,0.556,0.556V79.847z M-79.93,79.847c0,0.301-0.25,0.549-0.55,0.549h-4.758
	c-0.306,0-0.556-0.248-0.556-0.549v-1.657c0-0.306,0.25-0.556,0.556-0.556h4.758c0.3,0,0.55,0.25,0.55,0.556V79.847z M-79.93,73.611
	c0,0.255-0.207,0.46-0.459,0.46h-19.706c-0.253,0-0.459-0.205-0.459-0.46v-8.565c0-0.256,0.207-0.46,0.459-0.46h19.706
	c0.252,0,0.459,0.204,0.459,0.46V73.611z"/>
<path display="none" fill="#BCBEC0" d="M-36.735,101.243c0.245,0.244,0.583,0.395,0.955,0.395c0.75,0,1.358-0.609,1.358-1.357
	c0-0.75-0.608-1.357-1.358-1.357s-1.358,0.607-1.358,1.357c0,0.086,0.011,0.17,0.026,0.252l-2.291,1.865
	c-0.07,0.059-0.118,0.137-0.137,0.227l-0.205,0.986c-0.581-0.053-1.241-0.139-1.598-0.439c-0.626-0.525-1.171-1.297-2.19-1.297
	h-0.012c-1.021,0-1.563,0.771-2.188,1.297c-0.354,0.301-1.012,0.383-1.592,0.438l-0.21-0.984c-0.018-0.09-0.066-0.168-0.137-0.227
	l-2.289-1.865c0.016-0.082,0.024-0.164,0.024-0.252c0-0.75-0.607-1.357-1.356-1.357c-0.75,0-1.357,0.607-1.357,1.357
	c0,0.748,0.607,1.357,1.357,1.357c0.372,0,0.709-0.15,0.955-0.395l2.06,1.68l0.16,0.771c-0.093,0.016-0.173,0.037-0.231,0.061
	c-0.104,0.049-0.16,0.199-0.188,0.373l-3.063,0.311c-0.232,0.023-0.403,0.232-0.38,0.465c0.022,0.219,0.206,0.385,0.424,0.385
	c0.013,0,0.027-0.002,0.041-0.002l2.977-0.301c0.052,0.654,0.447,0.539,2.411,0.572c0.938,0.018,0.83,0.072,0.995,0.24
	c0.165,0.162,0.173,0.553,0.173,0.553c-0.813,0.139-1.81,0.373-2.508,0.762c-1.383,0.775-1.367,1.613-1.564,3.672
	c-0.196,2.055-0.224,4.082-0.247,4.605c-0.017,0.445,0.059,4.211,0.101,5.068c0.07,1.49-0.044,1.551,0.64,2.057
	c0.445,0.326,1.017,0.762,2.183,0.924c0.191,0.025,0.369,0.047,0.549,0.066v0.852h0.012c0.029,0.252,0.345,0.475,0.826,0.625v4.496
	c0,0.799,0.647,1.445,1.445,1.445c0.797,0,1.445-0.646,1.445-1.445v-4.502c0.47-0.15,0.776-0.369,0.805-0.619h0.011v-0.854
	c0.179-0.018,0.354-0.039,0.544-0.064c1.166-0.162,1.736-0.598,2.181-0.924c0.688-0.506,0.569-0.566,0.644-2.057
	c0.039-0.857,0.116-4.623,0.098-5.068c-0.02-0.523-0.049-2.551-0.246-4.605c-0.197-2.059-0.181-2.896-1.563-3.672
	c-0.696-0.389-1.695-0.623-2.51-0.762c0,0,0.009-0.391,0.174-0.553c0.162-0.168,0.056-0.223,0.996-0.24
	c1.962-0.033,2.357,0.082,2.408-0.572l2.981,0.301c0.015,0,0.029,0.002,0.044,0.002c0.217,0,0.4-0.166,0.424-0.385
	c0.023-0.232-0.147-0.441-0.382-0.465l-3.067-0.311c-0.029-0.176-0.083-0.324-0.188-0.373c-0.057-0.023-0.137-0.043-0.229-0.059
	l0.161-0.773L-36.735,101.243z M-43.537,105.751c-0.905,0-1.639-0.732-1.639-1.639c0-0.904,0.733-1.639,1.639-1.639
	s1.639,0.734,1.639,1.639C-41.898,105.019-42.632,105.751-43.537,105.751z"/>
<path display="none" fill="#BCBEC0" d="M202.698,75.559v-0.936c0-0.831-0.898-1.525-1.64-2.045
	c-0.105-0.077-0.209-0.146-0.304-0.213l-6.55-4.568l0,0c-2.23-1.557-2.23-2.635-2.23-4.159v-5.739c0-1.097-0.891-3.544-1.987-3.544
	c-1.095,0-1.985,2.447-1.985,3.544v5.739c0,1.524,0,2.602-2.231,4.159l0,0l-6.549,4.568c-0.095,0.067-0.198,0.137-0.305,0.213
	c-0.739,0.52-1.639,1.214-1.639,2.045v0.936c0,0.101-0.005,0.2,0,0.293c0.01,0.274,0.095,0.46,0.58,0.295l10.144-3.479V79.6
	c-0.003,1.577-0.054,1.828-1.007,2.604l-0.433,0.348c-0.003,0.002-0.005,0.002-0.005,0.004c0,0-0.004,0.002-0.005,0.002l-1.52,1.212
	c-0.029,0.024-0.059,0.044-0.085,0.066c-0.186,0.148-0.316,0.285-0.316,0.675v1.285c0,0.529,0,0.664,0.422,0.476l4.931-2.183
	c0.003,0,0.003,0,0.003,0c0.002,0,0.002,0,0.002,0l4.934,2.183c0.423,0.188,0.423,0.053,0.423-0.476v-1.285
	c0-0.391-0.132-0.527-0.318-0.675c-0.027-0.022-0.056-0.042-0.083-0.066l-1.521-1.212l-0.004-0.002c0-0.002-0.002-0.002-0.005-0.004
	l-0.434-0.348c-0.952-0.777-1.006-1.028-1.006-2.604v-6.932l10.145,3.479c0.486,0.165,0.569-0.021,0.579-0.295
	C202.703,75.759,202.698,75.66,202.698,75.559z"/>
<g display="none">
	<path display="inline" fill="#BCBEC0" d="M175.976,107.167c0.062,0,0.122-0.004,0.185-0.02l12.307-2.719v1.289l-6.641,3.461
		c-0.294,0.154-0.479,0.461-0.479,0.793v1.273h1.786v-0.73l6.852-3.572l6.921,3.574v0.729h1.787v-1.273
		c0-0.334-0.188-0.641-0.482-0.793l-6.701-3.461v-1.961l12.58-2.779c0.46-0.102,0.748-0.555,0.647-1.014
		c-0.102-0.457-0.558-0.746-1.016-0.646l-8.664,1.914l-0.19-0.855c-0.037-0.17-0.206-0.279-0.377-0.242l-2.039-0.201l-6.208,1.371
		l-1.763,1.039c-0.17,0.039-0.278,0.209-0.243,0.379l0.191,0.857l-8.636,1.908c-0.458,0.102-0.747,0.557-0.646,1.014
		C175.235,106.897,175.585,107.167,175.976,107.167z"/>
	<path display="inline" fill="#BCBEC0" d="M203.58,111.872c-0.05-0.359-0.358-0.625-0.722-0.625h-12.87h-12.87
		c-0.364,0-0.672,0.266-0.72,0.625l-1.273,9.109c-0.011,0.066-0.011,0.135,0,0.203l1.273,9.111c0.048,0.359,0.355,0.627,0.72,0.627
		h12.87h12.87c0.363,0,0.672-0.268,0.722-0.627l1.271-9.111c0.01-0.068,0.01-0.137,0-0.203L203.58,111.872z M183.958,120.243
		c-0.027,0.281-0.267,0.498-0.554,0.498h-5.549c-0.307,0-0.557-0.246-0.557-0.557c0-0.02,0.93-6.701,0.93-6.701
		c0.052-0.252,0.278-0.443,0.545-0.443h4.629c0.306,0,0.556,0.248,0.556,0.557V120.243z M194.229,120.185
		c0,0.307-0.249,0.557-0.558,0.557h-7.368c-0.308,0-0.558-0.25-0.558-0.557v-6.588c0-0.309,0.25-0.557,0.558-0.557h7.368
		c0.309,0,0.558,0.248,0.558,0.557V120.185z M202.102,120.741h-5.548c-0.286,0-0.527-0.217-0.556-0.498v-6.646
		c0-0.309,0.249-0.557,0.558-0.557h4.628c0.269,0,0.493,0.191,0.547,0.443c0,0,0.928,6.682,0.928,6.701
		C202.658,120.495,202.41,120.741,202.102,120.741z"/>
</g>
<g display="none">
	<path display="inline" fill="#BCBEC0" d="M49.476,105.161c1.275,0.332,2.577-0.432,2.907-1.704c0.334-1.273-0.428-2.575-1.7-2.909
		c-1.275-0.332-2.579,0.432-2.907,1.704C47.442,103.527,48.2,104.825,49.476,105.161z"/>
	<path display="inline" fill="#BCBEC0" d="M49.216,121.438l0.5,2.497c0.057-0.094,0.117-0.186,0.152-0.292l1.546-4.636h-2.866
		l-0.197,0.596l0.701,1.364C49.128,121.115,49.183,121.273,49.216,121.438z"/>
	<path display="inline" fill="#BCBEC0" d="M59.998,119.175c-0.656,0-1.285,0.111-1.875,0.313l-1.337-4.618
		c-0.074-0.246-0.299-0.414-0.553-0.414h-1.473c-0.086-0.141-0.192-0.266-0.337-0.361l-2.985-1.937l-1.019-4.961
		c0,0-0.008-0.021-0.023-0.053c-0.158-0.643-0.564-1.219-1.197-1.545c-0.63-0.326-1.339-0.332-1.952-0.094
		c-0.012,0.004-0.023,0.01-0.035,0.014c-0.508,0.207-0.953,0.58-1.227,1.105l-3.674,7.129c-0.378,0.729-0.339,1.563,0.024,2.233
		c-0.228-0.025-0.409,0.039-0.536,0.107c-0.209,0.115-0.557,0.414-0.096,1.102c0.46,0.688,0.911,0.632,1.433,0.632l0.534-0.088
		h0.158l0.27,0.523l-1.32,1.758c-0.887-0.541-1.926-0.859-3.039-0.859c-3.235,0-5.866,2.632-5.866,5.865s2.631,5.865,5.866,5.865
		c2.486,0,4.611-1.558,5.464-3.747l2.037,0.568l0.006,0.043c0.131,0.646,0.697,1.094,1.331,1.094c0.088,0,0.18-0.01,0.268-0.027
		c0.738-0.146,1.212-0.863,1.066-1.6l-0.063-0.316l6.777-7.786l-0.563-1.715h-8.842l0.591,1.148h7.782l-6.031,6.93l-0.791-3.956
		c-0.023-0.123-0.064-0.242-0.123-0.354l-2.308-4.488l0.621,0.268h5.022c-0.035-0.494-0.336-0.947-0.815-1.152l-3.727-1.602
		l1.505-2.921l0.021-0.051l0.376,1.836c0.063,0.291,0.236,0.547,0.488,0.711l3.375,2.19c0.188,0.121,0.398,0.18,0.605,0.18
		c0.365,0,0.725-0.18,0.933-0.508c0.006-0.01,0.006-0.021,0.014-0.031H55.8l1.266,4.362c-1.756,1.017-2.942,2.911-2.942,5.082
		c0,3.237,2.636,5.873,5.875,5.873s5.875-2.636,5.875-5.873C65.873,121.811,63.237,119.175,59.998,119.175z M39.74,129.744
		c-2.603,0-4.718-2.117-4.718-4.718s2.116-4.717,4.718-4.717c0.855,0,1.646,0.247,2.339,0.646l-2.799,3.728
		c-0.115,0.15-0.146,0.35-0.085,0.529c0.063,0.18,0.208,0.316,0.39,0.369l4.507,1.254C43.382,128.541,41.7,129.744,39.74,129.744z
		 M44.384,125.726l-3.68-1.025l2.3-3.065c0.891,0.859,1.455,2.059,1.455,3.392C44.458,125.267,44.42,125.495,44.384,125.726z
		 M46.987,126.45l-1.478-0.41c0.059-0.33,0.096-0.668,0.096-1.014c0-1.708-0.74-3.243-1.909-4.315l0.987-1.312l1.463,2.849
		L46.987,126.45z M59.998,129.773c-2.606,0-4.726-2.121-4.726-4.724c0-1.644,0.848-3.093,2.125-3.938l0.644,2.225
		c0.795,2.095,1.688,2.28,1.941,2.288c0.004,0,0.012,0,0.016,0c0.313,0,0.607-0.242,0.617-0.555c0.01-0.318-0.199-0.576-0.518-0.584
		c-0.006-0.002-0.457-0.174-0.965-1.513l-0.686-2.365c0.488-0.171,1.006-0.282,1.551-0.282c2.604,0,4.727,2.118,4.727,4.725
		C64.725,127.652,62.603,129.773,59.998,129.773z"/>
</g>
<path display="none" fill="#BCBEC0" d="M107.113,71.564c-0.32-2.664-1.146-7.462-1.445-9.162c-0.076-0.446-0.304-0.816-0.458-0.993
	l-0.005-0.006c-1.094-1.244-2.748-2.202-4.701-2.69l1.674-1.674c0.793,0.374,1.499,0.846,2.075,1.4
	c0.15,0.145,0.343,0.216,0.539,0.216c0.203,0,0.409-0.079,0.562-0.239c0.298-0.309,0.287-0.802-0.023-1.102
	c-1.845-1.772-4.629-2.803-7.646-2.833h-0.137h-0.137c-3.018,0.031-5.8,1.061-7.646,2.833c-0.311,0.299-0.321,0.793-0.022,1.102
	c0.151,0.16,0.356,0.239,0.562,0.239c0.194,0,0.388-0.071,0.537-0.216c0.577-0.554,1.282-1.026,2.075-1.4l1.675,1.674
	c-1.953,0.488-3.606,1.446-4.7,2.69l-0.006,0.006c-0.156,0.177-0.381,0.547-0.459,0.993c-0.298,1.7-1.125,6.499-1.443,9.162
	c-0.418,3.513,0.138,7.668,0.512,8.844c0.42,1.311,0.581,2.386,0.581,2.386c0.021,0.153,0.937,0.295,2.42,0.394l-1.942,2.632v0.582
	h2.52l0.34-0.458l1.941-2.628c0.969,0.026,2.032,0.042,3.155,0.042h0.038h0.038c1.123,0,2.187-0.015,3.156-0.042l1.939,2.628
	l0.34,0.458h2.52V85.82l-1.942-2.632c1.485-0.099,2.4-0.241,2.421-0.394c0,0,0.16-1.075,0.581-2.386
	C106.975,79.232,107.531,75.077,107.113,71.564z M94.526,56.443c0.942-0.262,1.955-0.403,2.988-0.406c0.001,0,0.018,0,0.033,0
	s0.032,0,0.033,0c1.033,0.003,2.047,0.144,2.987,0.406l-1.954,1.958c-0.338-0.03-0.681-0.045-1.028-0.046h-0.038H97.51
	c-0.348,0.001-0.69,0.016-1.028,0.046L94.526,56.443z M92.7,62.098l0.233-1.05c0.024-0.11,0.14-0.209,0.251-0.22
	c0,0,2.39-0.204,4.363-0.204s4.361,0.204,4.361,0.204c0.113,0.011,0.229,0.11,0.253,0.22l0.233,1.05
	c0.022,0.11-0.05,0.194-0.161,0.185c0,0-2.713-0.207-4.687-0.207s-4.688,0.207-4.688,0.207C92.75,62.292,92.678,62.208,92.7,62.098z
	 M90.88,82.081c-0.546,0-0.989-0.443-0.989-0.989c0-0.546,0.443-0.989,0.989-0.989s0.989,0.443,0.989,0.989
	C91.869,81.638,91.426,82.081,90.88,82.081z M94.06,79.012L94.06,79.012l-3.131-0.294c-0.385,0-0.697-0.311-0.697-0.697l-0.19-1.614
	c-0.004-0.008-0.004-0.014-0.004-0.022c-0.01-0.14,0.069-0.14,0.214-0.14h1.635c0.061,0,0.125,0,0.156,0.09
	c0.003,0.005,0.005,0.011,0.005,0.019c0.144,0.441,0.562,0.761,1.052,0.761c0.092,0,0.18-0.011,0.268-0.035
	c0.127-0.029,0.221-0.082,0.269,0.047c0.003,0.002,0.004,0.006,0.004,0.009l0.579,1.711c0,0.002,0,0.004,0,0.004
	C94.254,78.957,94.171,79.023,94.06,79.012z M101.037,79.012L101.037,79.012c-0.113,0.011-0.195-0.055-0.16-0.161
	c0,0,0-0.002,0-0.004l0.578-1.711c0-0.003,0.003-0.007,0.005-0.009c0.049-0.129,0.143-0.077,0.269-0.047
	c0.087,0.023,0.177,0.035,0.271,0.035c0.488,0,0.905-0.32,1.049-0.761c0-0.008,0.002-0.014,0.005-0.019
	c0.031-0.09,0.096-0.09,0.156-0.09h1.636c0.145,0,0.224,0,0.213,0.14c0,0.008,0,0.014-0.005,0.022l-0.189,1.614
	c0,0.386-0.311,0.697-0.697,0.697L101.037,79.012z M104.216,82.081c-0.545,0-0.99-0.443-0.99-0.989c0-0.546,0.445-0.989,0.99-0.989
	c0.548,0,0.99,0.443,0.99,0.989C105.206,81.638,104.764,82.081,104.216,82.081z M104.585,72.72c0,0-0.051-0.008-0.077-0.014
	c-1.32-0.23-3.963-0.386-6.96-0.387c-2.997,0.001-5.641,0.157-6.962,0.387c-0.026,0.006-0.075,0.014-0.075,0.014
	c-1.056,0.18-0.864-0.751-0.818-1.099h0.004l0.748-6.304c0.032-0.206,0.016-1.128,1.141-1.204c0.865-0.061,3.825-0.264,5.963-0.267
	c2.138,0.002,5.096,0.206,5.964,0.267c1.123,0.076,1.106,0.998,1.141,1.204l0.749,6.304h0.001
	C105.449,71.969,105.641,72.9,104.585,72.72z"/>
<path display="none" fill="#BCBEC0" d="M-76.527,124.579v-4.021c0-0.935-0.014-3.164-2.37-3.806l-1.293-5.896
	c-0.235-1.084-0.637-2.318-2.958-2.318h-4.11v-1.746h-5.967v1.746h-4.109c-2.322,0-2.723,1.234-2.959,2.318l-1.293,5.896
	c-2.355,0.642-2.369,2.871-2.369,3.806v4.021c-0.21,0.188-0.346,0.453-0.346,0.758v0.342c0,0.57,0.46,1.031,1.032,1.031h0.807v1.926
	c0.104,2.287,0.714,2.287,2.316,2.287c1.601,0,2.21,0,2.315-2.287v-1.926h15.177v1.326v0.6c0.105,2.287,0.714,2.287,2.315,2.287
	c1.604,0,2.213,0,2.319-2.287v-0.6v-1.326h0.807c0.57,0,1.03-0.461,1.03-1.031v-0.342
	C-76.182,125.032-76.318,124.767-76.527,124.579z M-98.387,111.581c0.186-0.848,0.65-1.025,1.521-1.025h13.251
	c0.87,0,1.335,0.178,1.521,1.025l1.012,4.619c-1.952-0.416-5.355-0.693-9.159-0.693c-3.803,0-7.206,0.277-9.157,0.693
	L-98.387,111.581z M-101.168,120.63c-0.765,0-1.383-0.619-1.383-1.385c0-0.764,0.618-1.385,1.383-1.385s1.384,0.621,1.384,1.385
	C-99.785,120.011-100.404,120.63-101.168,120.63z M-97.083,120.63c-0.764,0-1.385-0.619-1.385-1.385
	c0-0.764,0.621-1.385,1.385-1.385c0.766,0,1.386,0.621,1.386,1.385C-95.698,120.011-96.318,120.63-97.083,120.63z M-83.4,120.63
	c-0.765,0-1.385-0.619-1.385-1.385c0-0.764,0.62-1.385,1.385-1.385s1.385,0.621,1.385,1.385
	C-82.015,120.011-82.635,120.63-83.4,120.63z M-79.314,120.63c-0.766,0-1.385-0.619-1.385-1.385c0-0.764,0.619-1.385,1.385-1.385
	c0.765,0,1.383,0.621,1.383,1.385C-77.931,120.011-78.549,120.63-79.314,120.63z"/>
</svg>
