<?xml version="1.0" encoding="utf-8"?>
<!-- Generator: Adobe Illustrator 16.0.0, SVG Export Plug-In . SVG Version: 6.00 Build 0)  -->
<!DOCTYPE svg PUBLIC "-//W3C//DTD SVG 1.1//EN" "http://www.w3.org/Graphics/SVG/1.1/DTD/svg11.dtd">
<svg version="1.1" id="Layer_1" xmlns="http://www.w3.org/2000/svg" xmlns:xlink="http://www.w3.org/1999/xlink" x="0px" y="0px"
	 width="100px" height="100px" viewBox="0 0 100 100" enable-background="new 0 0 100 100" xml:space="preserve">
<g>
	<rect x="16.551" y="13.792" fill="#FFFFFF" width="66.898" height="72.415"/>
	<path fill="#9B9B9B" d="M62.727,37.272c-0.781-0.781-2.047-0.781-2.828,0l-9.899,9.898l-9.896-9.898
		c-0.781-0.781-2.047-0.781-2.828,0c-0.781,0.78-0.781,2.047,0,2.828l9.899,9.898l-9.899,9.9c-0.781,0.777-0.781,2.047,0,2.828
		c0.391,0.391,0.902,0.586,1.414,0.586s1.022-0.195,1.414-0.586l9.896-9.9l9.899,9.9c0.391,0.391,0.9,0.586,1.414,0.586
		c0.512,0,1.021-0.195,1.414-0.586c0.779-0.781,0.779-2.051,0-2.828l-9.9-9.9l9.9-9.898C63.506,39.319,63.506,38.052,62.727,37.272z
		"/>
	<path fill="#9B9B9B" d="M73.648,26.343c-6.318-6.319-14.721-9.8-23.657-9.8c-8.938,0-17.337,3.479-23.656,9.8
		c-13.046,13.045-13.046,34.271,0,47.315c6.317,6.318,14.721,9.799,23.656,9.799c8.937,0,17.339-3.479,23.659-9.799
		C79.967,67.34,83.449,58.938,83.449,50C83.447,41.063,79.969,32.662,73.648,26.343z M70.822,70.83
		c-5.563,5.563-12.961,8.627-20.829,8.627c-7.869,0-15.267-3.063-20.83-8.627c-11.484-11.486-11.484-30.174,0-41.659
		c5.564-5.564,12.96-8.628,20.828-8.628s15.267,3.063,20.829,8.627c5.563,5.563,8.627,12.961,8.629,20.83
		C79.449,57.869,76.387,65.268,70.822,70.83z"/>
</g>
</svg>
